<svg xmlns="http://www.w3.org/2000/svg" width="27" height="32" viewBox="0 0 27 32" fill="none">
  <path d="M14.2483 0.0875192C14.7753 0.44845 14.7753 0.44845 15.1851 0.884057C15.2855 0.986735 15.386 1.08941 15.4895 1.1952C15.663 1.38795 15.8301 1.58735 15.9907 1.79232C16.4016 2.16201 16.6326 2.15888 17.1664 2.1706C17.3396 2.17596 17.5129 2.18132 17.6913 2.18684C17.8781 2.18997 18.0649 2.1931 18.2573 2.19632C18.6525 2.20886 19.0477 2.22144 19.4428 2.23405C20.0661 2.25044 20.6893 2.26557 21.3127 2.2797C21.9141 2.29434 22.5153 2.31359 23.1166 2.33323C23.3956 2.33732 23.3956 2.33732 23.6803 2.34149C24.474 2.36873 24.9856 2.39908 25.6843 2.82216C26.3243 3.60972 26.4727 4.34054 26.4747 5.36516C26.4761 5.58291 26.4774 5.80066 26.4788 6.02501C26.4783 6.26194 26.4778 6.49886 26.4774 6.74296C26.4783 6.994 26.4793 7.24505 26.4803 7.50369C26.4828 8.19078 26.4829 8.87785 26.4824 9.56494C26.4822 10.139 26.4831 10.7131 26.484 11.2871C26.4861 12.6414 26.4862 13.9958 26.485 15.3501C26.4839 16.7465 26.4862 18.1429 26.4902 19.5393C26.4935 20.7392 26.4946 21.9391 26.494 23.139C26.4937 23.8553 26.4942 24.5715 26.4968 25.2877C26.4996 26.0862 26.4978 26.8847 26.4957 27.6832C26.4971 27.9201 26.4985 28.157 26.5 28.4011C26.4987 28.6189 26.4974 28.8366 26.496 29.061C26.496 29.2497 26.4961 29.4384 26.4961 29.6328C26.3802 30.4978 25.947 31.2104 25.3018 31.7499C24.1309 32.0848 22.8006 31.9785 21.5966 31.9779C21.4021 31.9786 21.2075 31.9793 21.007 31.98C20.3683 31.9819 19.7296 31.9823 19.0908 31.9825C18.6441 31.9831 18.1973 31.9838 17.7506 31.9845C16.816 31.9857 15.8814 31.986 14.9467 31.9859C13.7522 31.9859 12.5576 31.9886 11.3631 31.992C10.441 31.9943 9.51892 31.9947 8.59683 31.9946C8.15653 31.9948 7.71622 31.9957 7.27592 31.9972C6.65911 31.9992 6.04233 31.9986 5.42552 31.9974C5.1558 31.9991 5.1558 31.9991 4.88063 32.0008C1.93959 31.9864 1.93959 31.9864 1.02867 31.0654C0.635157 30.3197 0.548224 29.7685 0.545699 28.9275C0.544629 28.7143 0.543559 28.501 0.542457 28.2812C0.542248 28.0472 0.542038 27.8132 0.541823 27.5721C0.540892 27.3257 0.539962 27.0792 0.539004 26.8253C0.536735 26.1489 0.535338 25.4724 0.534506 24.796C0.533956 24.3731 0.533187 23.9502 0.53235 23.5274C0.529789 22.2035 0.527978 20.8797 0.527255 19.5558C0.526416 18.0291 0.52313 16.5024 0.5177 14.9757C0.513645 13.7947 0.511759 12.6137 0.511509 11.4328C0.511313 10.7279 0.510213 10.023 0.506859 9.31809C0.503188 8.53107 0.504015 7.7441 0.505231 6.95707C0.503505 6.72468 0.501779 6.49229 0.5 6.25285C0.506697 4.86957 0.52458 3.72758 1.48859 2.69464C1.94615 2.44258 2.25387 2.39549 2.7679 2.38223C2.94231 2.37623 3.11673 2.37023 3.29644 2.36405C3.48341 2.36029 3.67038 2.35654 3.86303 2.35267C4.1526 2.34281 4.1526 2.34281 4.44802 2.33274C5.27375 2.30469 6.0996 2.28328 6.92548 2.26127C7.52842 2.24426 8.13121 2.22388 8.73405 2.20332C9.01508 2.19769 9.01508 2.19769 9.30179 2.19195C9.56253 2.18295 9.56253 2.18295 9.82854 2.17376C10.0579 2.16784 10.0579 2.16784 10.2919 2.1618C10.7777 2.06027 10.9165 1.85448 11.2508 1.48146C11.4363 1.48146 11.6217 1.48146 11.8128 1.48146C11.8283 1.36235 11.8437 1.24325 11.8597 1.12053C12.23 -0.0275288 13.2327 -0.110318 14.2483 0.0875192ZM13.1243 1.48146C13.1243 1.74432 13.1243 2.00717 13.1243 2.278C13.3716 2.278 13.6189 2.278 13.8737 2.278C13.8737 2.01514 13.8737 1.75228 13.8737 1.48146C13.6264 1.48146 13.3791 1.48146 13.1243 1.48146Z" fill="#DCDBDB"/>
  <path d="M14.2483 0.0875192C14.7753 0.44845 14.7753 0.44845 15.1851 0.884057C15.2855 0.986735 15.386 1.08941 15.4895 1.1952C15.663 1.38795 15.8301 1.58735 15.9907 1.79232C16.4016 2.16201 16.6326 2.15888 17.1664 2.1706C17.3396 2.17596 17.5129 2.18132 17.6913 2.18684C17.8781 2.18997 18.0649 2.1931 18.2573 2.19632C18.6525 2.20886 19.0477 2.22144 19.4428 2.23405C20.0661 2.25044 20.6893 2.26557 21.3127 2.2797C21.9141 2.29434 22.5153 2.31359 23.1166 2.33323C23.3956 2.33732 23.3956 2.33732 23.6803 2.34149C24.474 2.36873 24.9856 2.39908 25.6843 2.82216C26.3243 3.60972 26.4727 4.34054 26.4747 5.36516C26.4761 5.58291 26.4774 5.80066 26.4788 6.02501C26.4783 6.26194 26.4778 6.49886 26.4774 6.74296C26.4783 6.994 26.4793 7.24505 26.4803 7.50369C26.4828 8.19078 26.4829 8.87785 26.4824 9.56494C26.4822 10.139 26.4831 10.7131 26.484 11.2871C26.4861 12.6414 26.4862 13.9958 26.485 15.3501C26.4839 16.7465 26.4862 18.1429 26.4902 19.5393C26.4935 20.7392 26.4946 21.9391 26.494 23.139C26.4937 23.8553 26.4942 24.5715 26.4968 25.2877C26.4996 26.0862 26.4978 26.8847 26.4957 27.6832C26.4971 27.9201 26.4985 28.157 26.5 28.4011C26.4987 28.6189 26.4974 28.8366 26.496 29.061C26.496 29.2497 26.4961 29.4384 26.4961 29.6328C26.3802 30.4978 25.947 31.2104 25.3018 31.7499C24.1309 32.0848 22.8006 31.9785 21.5966 31.9779C21.4021 31.9786 21.2075 31.9793 21.007 31.98C20.3683 31.9819 19.7296 31.9823 19.0908 31.9825C18.6441 31.9831 18.1973 31.9838 17.7506 31.9845C16.816 31.9857 15.8814 31.986 14.9467 31.9859C13.7522 31.9859 12.5576 31.9886 11.3631 31.992C10.441 31.9943 9.51892 31.9947 8.59683 31.9946C8.15653 31.9948 7.71622 31.9957 7.27592 31.9972C6.65911 31.9992 6.04233 31.9986 5.42552 31.9974C5.1558 31.9991 5.1558 31.9991 4.88063 32.0008C1.93959 31.9864 1.93959 31.9864 1.02867 31.0654C0.635157 30.3197 0.548224 29.7685 0.545699 28.9275C0.544629 28.7143 0.543559 28.501 0.542457 28.2812C0.542248 28.0472 0.542038 27.8132 0.541823 27.5721C0.540892 27.3257 0.539962 27.0792 0.539004 26.8253C0.536735 26.1489 0.535338 25.4724 0.534506 24.796C0.533956 24.3731 0.533187 23.9502 0.53235 23.5274C0.529789 22.2035 0.527978 20.8797 0.527255 19.5558C0.526416 18.0291 0.52313 16.5024 0.5177 14.9757C0.513645 13.7947 0.511759 12.6137 0.511509 11.4328C0.511313 10.7279 0.510213 10.023 0.506859 9.31809C0.503188 8.53107 0.504015 7.7441 0.505231 6.95707C0.503505 6.72468 0.501779 6.49229 0.5 6.25285C0.506697 4.86957 0.52458 3.72758 1.48859 2.69464C1.94615 2.44258 2.25387 2.39549 2.7679 2.38223C2.94231 2.37623 3.11673 2.37023 3.29644 2.36405C3.48341 2.36029 3.67038 2.35654 3.86303 2.35267C4.1526 2.34281 4.1526 2.34281 4.44802 2.33274C5.27375 2.30469 6.0996 2.28328 6.92548 2.26127C7.52842 2.24426 8.13121 2.22388 8.73405 2.20332C9.01508 2.19769 9.01508 2.19769 9.30179 2.19195C9.56253 2.18295 9.56253 2.18295 9.82854 2.17376C10.0579 2.16784 10.0579 2.16784 10.2919 2.1618C10.7777 2.06027 10.9165 1.85448 11.2508 1.48146C11.4363 1.48146 11.6217 1.48146 11.8128 1.48146C11.8283 1.36235 11.8437 1.24325 11.8597 1.12053C12.23 -0.0275288 13.2327 -0.110318 14.2483 0.0875192ZM13.1243 1.48146C13.1243 1.74432 13.1243 2.00717 13.1243 2.278C13.3716 2.278 13.6189 2.278 13.8737 2.278C13.8737 2.01514 13.8737 1.75228 13.8737 1.48146C13.6264 1.48146 13.3791 1.48146 13.1243 1.48146ZM2.63283 6.26068C2.63283 13.6864 2.63283 21.1121 2.63283 28.7629C9.80447 28.7629 16.9761 28.7629 24.3651 28.7629C24.3033 21.4029 24.2414 14.0429 24.1777 6.45982C23.6831 6.45982 23.1886 6.45982 22.679 6.45982C22.679 6.59125 22.679 6.72268 22.679 6.85809C16.682 6.85809 10.685 6.85809 4.5063 6.85809C4.5063 6.66094 4.5063 6.4638 4.5063 6.26068C3.88805 6.26068 3.26981 6.26068 2.63283 6.26068Z" fill="#B28F5B"/>
  <path d="M14.2477 0.0875192C14.7746 0.44845 14.7746 0.44845 15.1845 0.884057C15.2849 0.986735 15.3854 1.08941 15.4889 1.1952C15.6621 1.38765 15.8289 1.58678 15.9891 1.79153C16.4023 2.16321 16.6437 2.16335 17.1806 2.18324C17.3569 2.19117 17.5331 2.1991 17.7147 2.20727C17.9044 2.2129 18.0941 2.21853 18.2896 2.22432C18.5816 2.23632 18.5816 2.23632 18.8794 2.24855C19.5017 2.27349 20.124 2.29446 20.7463 2.31533C21.168 2.33154 21.5896 2.348 22.0113 2.36473C23.0454 2.40519 24.0796 2.44239 25.1138 2.47713C25.1138 2.54285 25.1138 2.60856 25.1138 2.67627C22.6409 2.74198 20.1679 2.80769 17.62 2.8754C18.7328 2.94111 19.8456 3.00683 20.9922 3.07453C22.1163 3.87107 22.1163 3.87107 22.491 4.46847C22.491 4.86276 22.491 5.25705 22.491 5.66328C16.5558 5.66328 10.6207 5.66328 4.50567 5.66328C4.50567 4.25593 4.59158 4.19956 5.44241 3.27367C6.62069 2.64746 8.06115 2.949 9.3767 2.8754C5.66722 2.77683 5.66722 2.77683 1.88281 2.67627C1.88281 2.61055 1.88281 2.54484 1.88281 2.47713C1.99188 2.47347 2.10094 2.46981 2.21331 2.46603C3.347 2.42739 4.4805 2.38476 5.61397 2.33979C6.03718 2.32353 6.46042 2.30829 6.88369 2.29409C7.4916 2.27352 8.09931 2.24929 8.70708 2.22432C8.89678 2.2187 9.08648 2.21307 9.28194 2.20727C9.45818 2.19934 9.63443 2.19141 9.81602 2.18324C9.9712 2.17749 10.1264 2.17175 10.2863 2.16582C10.7741 2.06026 10.9142 1.85669 11.2502 1.48146C11.4356 1.48146 11.6211 1.48146 11.8122 1.48146C11.8277 1.36235 11.8431 1.24325 11.859 1.12053C12.2294 -0.0275288 13.2321 -0.110318 14.2477 0.0875192ZM13.1236 1.48146C13.1236 1.74432 13.1236 2.00717 13.1236 2.278C13.3709 2.278 13.6182 2.278 13.873 2.278C13.873 2.01514 13.873 1.75228 13.873 1.48146C13.6257 1.48146 13.3784 1.48146 13.1236 1.48146Z" fill="#C2C4C4"/>
  <path d="M2.81955 28.7617C9.80572 28.7617 16.7919 28.7617 23.9898 28.7617C23.9898 29.785 23.9898 29.7544 23.9898 31.5496C16.7563 31.5496 10.1988 31.5218 2.74609 31.5218C3.00658 31.5219 2.74609 31.5218 2.81955 31.3505C2.81955 30.4962 2.81955 29.6419 2.81955 28.7617Z" fill="#74542E"/>
  <path d="M4.50757 5.66016C10.4427 5.66016 16.3779 5.66016 22.4929 5.66016C22.4929 5.98873 22.4929 6.3173 22.4929 6.65583C16.5577 6.65583 10.6226 6.65583 4.50757 6.65583C4.50757 6.32726 4.50757 5.99868 4.50757 5.66016Z" fill="#70655D"/>
  <path d="M4.69238 14.8203C9.82382 14.8203 14.9553 14.8203 20.2422 14.8203C20.2422 15.0175 20.2422 15.2146 20.2422 15.4177C15.1108 15.4177 9.97932 15.4177 4.69238 15.4177C4.69238 15.2206 4.69238 15.0234 4.69238 14.8203Z" fill="#C2C2C2"/>
  <path d="M4.69238 11.4355C8.40185 11.4355 12.1113 11.4355 15.9332 11.4355C16.0259 11.7313 16.0259 11.7313 16.1206 12.0329C12.3493 12.0329 8.57796 12.0329 4.69238 12.0329C4.69238 11.8358 4.69238 11.6387 4.69238 11.4355Z" fill="#BDBDBD"/>
  <path d="M7.87802 17.0117C11.1254 17.0117 14.3727 17.0117 17.6201 17.0117C17.6201 17.2089 17.6201 17.406 17.6201 17.6091C14.3434 17.6091 11.0667 17.6091 7.69067 17.6091C7.7525 17.412 7.81432 17.2148 7.87802 17.0117Z" fill="#BFBFBF"/>
  <path d="M22.4907 5.66325C22.4907 5.99182 22.4907 6.32039 22.4907 6.65892C20.3886 6.65892 18.2866 6.65892 16.1208 6.65892C16.6829 5.86238 16.6829 5.86238 17.3898 5.74104C17.6771 5.72765 17.9645 5.71854 18.2519 5.71303C18.4763 5.70439 18.4763 5.70439 18.7052 5.69558C19.9664 5.65145 21.2289 5.64192 22.4907 5.66325Z" fill="#71675F"/>
  <path d="M14.2477 0.0852898C14.8098 0.483558 14.8098 0.483559 15.1845 0.881827C15.1226 1.01326 15.0608 1.14468 14.9971 1.2801C14.7595 1.11992 14.7595 1.11992 14.517 0.956503C13.7054 0.611411 13.3549 0.7242 12.5616 1.08096C12.4379 1.2781 12.3143 1.47525 12.1869 1.67836C12.0594 1.71122 11.9319 1.74408 11.8005 1.77793C11.6807 1.81079 11.5609 1.84365 11.4375 1.8775C11.3757 2.07464 11.3139 2.27179 11.2502 2.4749C10.7972 2.71563 10.5133 2.69805 10.0074 2.69664C9.82743 2.69663 9.64741 2.69661 9.46195 2.6966C9.26718 2.69557 9.07241 2.69454 8.87174 2.69348C8.67267 2.6932 8.47359 2.69292 8.26849 2.69263C7.6309 2.69151 6.99331 2.68901 6.35572 2.68648C5.92419 2.68548 5.49266 2.68458 5.06113 2.68376C4.00168 2.68156 2.94225 2.67823 1.88281 2.67404C1.88281 2.60832 1.88281 2.54261 1.88281 2.4749C1.99188 2.47124 2.10094 2.46758 2.21331 2.4638C3.347 2.42517 4.4805 2.38253 5.61397 2.33756C6.03718 2.3213 6.46042 2.30606 6.88369 2.29186C7.49161 2.27129 8.09931 2.24706 8.70708 2.22209C8.89678 2.21647 9.08649 2.21084 9.28194 2.20504C9.45819 2.19711 9.63443 2.18918 9.81602 2.18101C9.9712 2.17526 10.1264 2.16952 10.2863 2.16359C10.7741 2.05803 10.9142 1.85446 11.2502 1.47923C11.4356 1.47923 11.6211 1.47923 11.8122 1.47923C11.8277 1.36012 11.8431 1.24102 11.859 1.1183C12.2284 -0.0268443 13.2336 -0.117496 14.2477 0.0852898Z" fill="#D2CCC0"/>
  <path d="M4.69238 21.5938C8.03091 21.5938 11.3694 21.5938 14.8091 21.5938C14.9019 21.7909 14.9019 21.7909 14.9965 21.992C14.4531 22.1573 13.9704 22.2163 13.4059 22.2169C13.1583 22.2179 13.1583 22.2179 12.9056 22.2188C12.7286 22.2184 12.5516 22.218 12.3692 22.2176C12.1858 22.2178 12.0024 22.218 11.8135 22.2182C11.4258 22.2183 11.0381 22.2179 10.6503 22.2171C10.0587 22.2161 9.46712 22.2171 8.87549 22.2184C8.49836 22.2182 8.12122 22.218 7.74409 22.2176C7.56783 22.218 7.39158 22.2184 7.20998 22.2188C6.34932 22.2156 5.53914 22.1798 4.69238 21.992C4.69238 21.8606 4.69238 21.7292 4.69238 21.5938Z" fill="#C3C3C3"/>
  <path d="M3.00806 28.959C9.9324 28.959 16.8568 28.959 23.9909 28.959C23.9909 29.0247 23.9909 29.0904 23.9909 29.1581C23.8842 29.1602 23.7775 29.1622 23.6675 29.1643C22.5583 29.1859 21.449 29.2087 20.3398 29.2323C19.9257 29.2409 19.5115 29.2492 19.0974 29.2572C18.5026 29.2686 17.9078 29.2813 17.313 29.2942C17.1274 29.2976 16.9418 29.3009 16.7506 29.3043C16.5781 29.3083 16.4056 29.3123 16.2279 29.3164C16.076 29.3195 15.9242 29.3226 15.7677 29.3257C15.3371 29.3429 15.3371 29.3429 14.8109 29.5564C14.8109 29.425 14.8109 29.2935 14.8109 29.1581C14.5662 29.1812 14.5662 29.1812 14.3166 29.2047C11.9477 29.3975 9.59648 29.3374 7.22337 29.2701C6.81282 29.2595 6.40226 29.249 5.99171 29.2386C4.99712 29.2132 4.00258 29.1863 3.00806 29.1581C3.00806 29.0924 3.00806 29.0267 3.00806 28.959Z" fill="#644421"/>
  <path d="M10.875 12.4316C13.9376 12.3914 16.9949 12.5141 20.055 12.6308C20.055 12.7622 20.055 12.8936 20.055 13.029C17.9287 13.1532 15.8032 13.2502 13.6735 13.2655C13.501 13.2681 13.3286 13.2706 13.1509 13.2733C12.3089 13.2746 11.6389 13.257 10.875 12.8299C10.875 12.6985 10.875 12.567 10.875 12.4316Z" fill="#B7B7B7"/>
  <path d="M14.0031 13.6022C14.2251 13.6028 14.2251 13.6028 14.4516 13.6034C15.5777 13.6122 16.6904 13.6796 17.8086 13.8262C17.8086 14.0234 17.8086 14.2205 17.8086 14.4236C13.3905 14.4647 13.3905 14.4647 11.2515 14.2245C11.2515 14.0931 11.2515 13.9616 11.2515 13.8262C12.1787 13.6288 13.0623 13.5963 14.0031 13.6022Z" fill="#B9B9B9"/>
  <path d="M17.4341 2.67409C18.039 2.65667 18.6439 2.6461 19.249 2.63676C19.5053 2.62925 19.5053 2.62925 19.7668 2.62159C20.7045 2.61072 21.3633 2.60744 22.1178 3.2715C22.892 4.22792 22.9455 4.85204 22.8671 6.05938C22.9908 6.12509 23.1144 6.19081 23.2418 6.25851C22.9945 6.25851 22.7472 6.25851 22.4925 6.25851C22.4898 6.14069 22.4871 6.02287 22.4844 5.90147C22.4339 5.0128 22.3918 4.57966 21.8484 3.8689C21.256 3.37743 20.9527 3.24691 20.2194 3.20849C20.0685 3.20015 19.9175 3.1918 19.762 3.18321C19.6043 3.17538 19.4466 3.16755 19.2841 3.15948C19.125 3.15089 18.9658 3.14229 18.8019 3.13343C18.4084 3.11228 18.0149 3.09222 17.6214 3.07236C17.5596 2.94093 17.4978 2.80951 17.4341 2.67409Z" fill="#A38051"/>
  <path d="M11.4383 1.67773C11.6238 1.67773 11.8092 1.67773 12.0003 1.67773C12.0679 2.56398 12.0679 2.56398 11.7974 3.00191C11.2564 3.407 10.8089 3.33796 10.1539 3.32915C10.03 3.3283 9.90602 3.32746 9.77831 3.32659C9.38311 3.32325 8.98809 3.31575 8.59295 3.30815C8.32474 3.30515 8.05652 3.30242 7.78831 3.29998C7.13144 3.2934 6.47467 3.28309 5.81787 3.27081C5.81787 3.20509 5.81787 3.13938 5.81787 3.07167C5.92472 3.06669 6.03157 3.0617 6.14166 3.05656C6.62314 3.03353 7.10454 3.00906 7.58596 2.98455C7.75417 2.97672 7.92237 2.9689 8.09567 2.96083C8.25567 2.95249 8.41567 2.94414 8.58051 2.93555C8.72866 2.92825 8.8768 2.92095 9.02944 2.91343C9.38009 2.91125 9.38009 2.91125 9.56481 2.67341C9.84859 2.62722 10.1339 2.59133 10.4196 2.56139C10.5744 2.54471 10.7292 2.52802 10.8887 2.51083C11.068 2.49273 11.068 2.49273 11.2509 2.47427C11.3128 2.21141 11.3746 1.94856 11.4383 1.67773Z" fill="#96A4B3"/>
  <path d="M15.1843 1.67773C15.308 1.67773 15.4316 1.67773 15.559 1.67773C15.6208 1.87488 15.6827 2.07202 15.7464 2.27514C16.1349 2.42831 16.1349 2.42831 16.5894 2.49916C17.418 2.65803 17.418 2.65803 17.6198 2.87254C17.8709 2.90357 18.1233 2.92241 18.3758 2.93555C18.6031 2.94806 18.6031 2.94806 18.835 2.96083C18.9943 2.96866 19.1536 2.97649 19.3177 2.98455C19.4777 2.99315 19.6376 3.00175 19.8025 3.01061C20.199 3.0318 20.5955 3.05184 20.9921 3.07167C20.9921 3.13739 20.9921 3.2031 20.9921 3.27081C20.2252 3.28064 19.4583 3.28788 18.6914 3.29269C18.4304 3.29469 18.1695 3.29741 17.9085 3.30085C17.5337 3.30568 17.1589 3.30773 16.7841 3.3097C16.5584 3.31179 16.3328 3.31387 16.1003 3.31602C15.559 3.27081 15.559 3.27081 15.1843 2.87254C15.1609 2.25025 15.1609 2.25025 15.1843 1.67773Z" fill="#9DABB9"/>
  <path d="M15.9346 21.5938C17.4184 21.5938 18.9021 21.5938 20.4309 21.5938C20.4309 21.7909 20.4309 21.988 20.4309 22.1912C18.9471 22.1912 17.4633 22.1912 15.9346 22.1912C15.9346 21.994 15.9346 21.7969 15.9346 21.5938Z" fill="#C5C5C5"/>
  <path d="M22.491 5.66016C22.491 5.98873 22.491 6.3173 22.491 6.65583C20.4508 6.65583 18.4106 6.65583 16.3086 6.65583C16.3086 6.59011 16.3086 6.5244 16.3086 6.45669C16.4239 6.45275 16.5391 6.4488 16.6579 6.44473C17.1816 6.42573 17.7052 6.4039 18.2289 6.38202C18.501 6.37278 18.501 6.37278 18.7785 6.36335C18.9536 6.35565 19.1287 6.34795 19.3091 6.34001C19.5504 6.33063 19.5504 6.33063 19.7967 6.32105C20.2711 6.25354 20.5739 6.09845 20.9923 5.85929C21.4989 5.75158 21.9742 5.66016 22.491 5.66016Z" fill="#7A7066"/>
  <path d="M16.3086 11.4355C17.3596 11.4355 18.4106 11.4355 19.4935 11.4355C19.5553 11.6327 19.6171 11.8298 19.6808 12.0329C18.568 12.0329 17.4552 12.0329 16.3086 12.0329C16.3086 11.8358 16.3086 11.6387 16.3086 11.4355Z" fill="#BCBCBC"/>
  <path d="M10.875 12.4316C11.9878 12.4316 13.1007 12.4316 14.2472 12.4316C14.3091 12.5631 14.3709 12.6945 14.4346 12.8299C14.8124 13.0556 14.8124 13.0556 15.184 13.2282C14.6414 13.239 14.099 13.2468 13.5564 13.2531C13.3269 13.2581 13.3269 13.2581 13.0928 13.2632C12.2668 13.2703 11.6268 13.2433 10.875 12.8299C10.875 12.6985 10.875 12.5671 10.875 12.4316Z" fill="#BDBDBD"/>
  <path d="M14.248 18.207C15.6082 18.207 16.9683 18.207 18.3697 18.207C18.3697 18.3385 18.3697 18.4699 18.3697 18.6053C17.0832 19.0175 15.5465 18.912 14.248 18.6053C14.248 18.4739 14.248 18.3424 14.248 18.207Z" fill="#BBBBBB"/>
  <path d="M21.5543 17.2118C21.5543 17.3432 21.5543 17.4746 21.5543 17.61C20.3178 17.61 19.0813 17.61 17.8074 17.61C17.8074 17.4786 17.8074 17.3472 17.8074 17.2118C19.0722 16.9877 20.2927 16.8765 21.5543 17.2118Z" fill="#BFBFBF"/>
  <path d="M6.00562 20.3948C6.49351 20.3894 6.98136 20.3854 7.46926 20.3823C7.60752 20.3807 7.74578 20.379 7.88823 20.3773C8.49719 20.3743 8.98332 20.3877 9.56521 20.5939C9.56521 20.7253 9.56521 20.8568 9.56521 20.9922C8.39054 20.9922 7.21588 20.9922 6.00562 20.9922C6.00562 20.795 6.00562 20.5979 6.00562 20.3948Z" fill="#C0C0C0"/>
  <path d="M4.69238 18.2073C5.23492 18.2019 5.77741 18.198 6.31996 18.1949C6.54945 18.1924 6.54945 18.1924 6.78357 18.1898C7.54849 18.1865 8.25507 18.2013 9.00136 18.4065C9.00136 18.4722 9.00136 18.5379 9.00136 18.6056C7.5794 18.6713 6.15744 18.737 4.69238 18.8047C4.69238 18.6076 4.69238 18.4104 4.69238 18.2073Z" fill="#BDBDBD"/>
  <path d="M10.126 14.8204C10.6334 14.815 11.1407 14.8111 11.6482 14.808C11.7907 14.8063 11.9331 14.8046 12.0799 14.8029C12.8873 14.7992 13.6397 14.8481 14.435 15.0196C14.435 15.0853 14.435 15.151 14.435 15.2187C12.973 15.4467 11.5929 15.3776 10.126 15.2187C10.126 15.0873 10.126 14.9558 10.126 14.8204Z" fill="#B8B8B8"/>
  <path d="M4.69238 22.7871C5.86705 22.7871 7.04172 22.7871 8.25198 22.7871C8.25198 22.9185 8.25198 23.05 8.25198 23.1854C7.01889 23.3632 5.92484 23.3755 4.69238 23.1854C4.69238 23.0539 4.69238 22.9225 4.69238 22.7871Z" fill="#C1C1C1"/>
  <path d="M4.69238 9.04679C5.01632 9.04136 5.34028 9.03753 5.66425 9.03434C5.84465 9.03203 6.02505 9.02972 6.21092 9.02734C6.72618 9.04582 7.18874 9.12224 7.68994 9.24592C7.68994 9.37735 7.68994 9.50878 7.68994 9.64419C6.20615 9.74277 6.20615 9.74277 4.69238 9.84333C4.69238 9.58047 4.69238 9.31761 4.69238 9.04679Z" fill="#B5B5B5"/>
  <path d="M18.1831 20.3965C19.1105 20.4622 20.0378 20.5279 20.9933 20.5956C20.9933 20.727 20.9933 20.8585 20.9933 20.9939C20.0659 20.9939 19.1386 20.9939 18.1831 20.9939C18.1831 20.7967 18.1831 20.5996 18.1831 20.3965Z" fill="#BCBCBC"/>
  <path d="M13.6864 20.3965C14.3046 20.3965 14.9229 20.3965 15.5598 20.3965C15.5598 20.5936 15.5598 20.7908 15.5598 20.9939C14.8798 20.9939 14.1997 20.9939 13.499 20.9939C13.5608 20.7967 13.6227 20.5996 13.6864 20.3965Z" fill="#C3C3C3"/>
  <path d="M7.50259 17.2108C7.50259 17.3422 7.50259 17.4736 7.50259 17.609C6.57522 17.609 5.64785 17.609 4.69238 17.609C4.69238 17.4776 4.69238 17.3462 4.69238 17.2108C5.694 17.0111 6.49536 17.0417 7.50259 17.2108Z" fill="#BABABA"/>
  <path d="M14.8105 16.0156C15.7379 16.0156 16.6653 16.0156 17.6208 16.0156C17.6208 16.1471 17.6208 16.2785 17.6208 16.4139C16.6191 16.6135 15.8178 16.5829 14.8105 16.4139C14.8105 16.2825 14.8105 16.151 14.8105 16.0156Z" fill="#B6B6B6"/>
  <path d="M18.1831 13.6269C18.4836 13.6215 18.7842 13.6176 19.0847 13.6144C19.2521 13.6121 19.4194 13.6098 19.5919 13.6074C20.0566 13.6269 20.0566 13.6269 20.6186 13.826C20.6186 13.9574 20.6186 14.0889 20.6186 14.2243C19.8149 14.2243 19.0112 14.2243 18.1831 14.2243C18.1831 14.0271 18.1831 13.83 18.1831 13.6269Z" fill="#BBBBBB"/>
  <path d="M12.75 0.0862042C14.1104 -0.0118311 14.1104 -0.0118311 14.8108 0.484473C14.9345 0.615902 15.0581 0.74733 15.1855 0.882742C15.1237 1.01417 15.0619 1.1456 14.9982 1.28101C14.6272 1.08387 14.2563 0.886724 13.8741 0.683607C13.8741 0.617893 13.8741 0.552179 13.8741 0.484473C13.3177 0.385901 13.3177 0.385901 12.75 0.285339C12.75 0.219624 12.75 0.15391 12.75 0.0862042Z" fill="#C9D1DC"/>
  <path d="M8.06643 14.8219C8.00461 15.0191 7.94278 15.2162 7.87909 15.4193C7.26084 15.3536 6.6426 15.2879 6.00562 15.2202C6.00562 15.1545 6.00562 15.0888 6.00562 15.0211C6.70335 14.8831 7.35654 14.7997 8.06643 14.8219Z" fill="#BABABA"/>
  <path d="M4.69238 13.627C4.96967 13.6496 5.24676 13.675 5.52374 13.7016C5.67806 13.7155 5.83238 13.7294 5.99137 13.7436C6.183 13.7844 6.183 13.7844 6.37851 13.8261C6.44033 13.9575 6.50216 14.0889 6.56585 14.2244C5.94761 14.2244 5.32936 14.2244 4.69238 14.2244C4.69238 14.0272 4.69238 13.8301 4.69238 13.627Z" fill="#B8B8B8"/>
  <path d="M7.87802 17.0117C8.18714 17.0117 8.49627 17.0117 8.81476 17.0117C8.87658 17.2089 8.93841 17.406 9.0021 17.6091C8.56933 17.6091 8.13656 17.6091 7.69067 17.6091C7.7525 17.412 7.81432 17.2148 7.87802 17.0117Z" fill="#BCBCBC"/>
  <path d="M15.1855 1.67773C15.3092 1.67773 15.4328 1.67773 15.5602 1.67773C15.5834 1.87077 15.6066 2.06381 15.6305 2.26269C15.6885 2.56457 15.6885 2.56457 15.7476 2.87254C15.8712 2.93825 15.9949 3.00397 16.1223 3.07167C15.8132 3.00596 15.504 2.94025 15.1855 2.87254C15.1855 2.47825 15.1855 2.08397 15.1855 1.67773Z" fill="#7F8FA2"/>
  <path d="M19.3059 19.4004C19.7387 19.4004 20.1715 19.4004 20.6173 19.4004C20.6173 19.5975 20.6173 19.7947 20.6173 19.9978C20.1846 19.9321 19.7518 19.8664 19.3059 19.7987C19.3059 19.6672 19.3059 19.5358 19.3059 19.4004Z" fill="#BEBEBE"/>
  <path d="M18.7441 18.207C19.2387 18.207 19.7333 18.207 20.2429 18.207C20.2429 18.4042 20.2429 18.6013 20.2429 18.8044C19.7483 18.7387 19.2537 18.673 18.7441 18.6053C18.7441 18.4739 18.7441 18.3424 18.7441 18.207Z" fill="#BDBDBD"/>
</svg>